<svg xmlns="http://www.w3.org/2000/svg" id="Capa_1" data-name="Capa 1" viewBox="0 0 527.44 445.03"><defs><style>.cls-1{fill:#dfdfe3}.cls-2{fill:#ffa21a}.cls-3{fill:#a1abb8}.cls-4{fill:#7d8694}.cls-5,.cls-8{fill:#fff}.cls-6{fill:url(#linear-gradient)}.cls-7{fill:#ffce00}.cls-8{stroke:#000;stroke-linejoin:round;stroke-width:2px}</style><linearGradient id="linear-gradient" x1="343.48" x2="132.55" y1="91.29" y2="342.07" gradientUnits="userSpaceOnUse"><stop offset="0" stop-color="#1aa59c"/><stop offset="1" stop-color="#005daf"/></linearGradient></defs><title>onboarding_icons</title><path d="M15.72 14.52h448v400h-448z" class="cls-1"/><path d="M495.72 270.52h16v-32h-16v-32h-144v32h16v32h-16v16a72 72 0 1 0 16 142.19v1.81h144v-32h-16v-32h16v-32h-16v-64z" class="cls-2"/><path d="M273.34 374.52H55.72v-48h24v-80h-24v-64h24v-80h-24v-48h368v144h-32v-64h16v-16h-32v80h-17.13c-7.7-58.8-58-104.38-118.86-104.38a120 120 0 1 0 38.14 233.68 79.84 79.84 0 0 0-4.53 46.7z" class="cls-3"/><path d="M295.21 301.95A104.51 104.51 0 1 1 310.63 290" class="cls-4"/><path d="M71.72 70.52h16v16h-16zm320 0h16v16h-16zm-320 272h16v16h-16zm160-64h16v24h-16zm0-152h16v24h-16zm-80 80h24v16h-24zm152 0h24v16h-24z"/><path d="M285.43 256.26h15.99v24h-15.99z" transform="rotate(-45.02 293.397 268.248)"/><path d="M177.96 148.76h15.99v24h-15.99z" transform="rotate(-45.02 185.931 160.745)"/><path d="M173.99 260.27h24v15.99h-24z" transform="rotate(-44.99 185.998 268.273)"/><path d="M281.45 152.78h24v15.99h-24z" transform="rotate(-44.99 293.458 160.775)"/><path d="M287.07 207.88l14.78-15.32-21.12-2.63a48 48 0 1 0 6.34 18zm-47.34 43.8a37.16 37.16 0 1 1 37.16-37.16 37.16 37.16 0 0 1-37.17 37.16z"/><path d="M351.72 310.52a48 48 0 1 0 48 48 48 48 0 0 0-48-48zm0 90.19a42.19 42.19 0 1 1 42.19-42.19 42.23 42.23 0 0 1-42.19 42.19z" class="cls-5"/><path d="M503.72 294.52v-16h16v-48h-16v-32h-32v-192h-464v416h72v16h72v-16h152.21a79.28 79.28 0 0 0 55.79 15.59v.41h160v-48h-16v-16h16v-48h-16v-32zm-16-80v16h-128v-16zm-57.62 160h57.62v16H425a78.74 78.74 0 0 0 5.11-16zm-14.54-64h72.15v16H425a79.93 79.93 0 0 0-9.43-16zm-7.85-16h-8.21a79.43 79.43 0 0 0-39.79-15.59v-.41h128v16zm-112.51 7.43A104.51 104.51 0 1 1 310.63 290a80.34 80.34 0 0 0-15.42 11.95zm-21.87 72.57H55.72v-48h24v-80h-24v-64h24v-80h-24v-48h368v144h-32v-64h16v-16h-32v80h-17.13c-7.7-58.8-58-104.38-118.86-104.38a120 120 0 1 0 38.14 233.68 79.84 79.84 0 0 0-4.53 46.7zm-209.62-112v48h-16v-48zm0-144v48h-16v-48zm296 128v16h-10.26a119.82 119.82 0 0 0 5.71-16zm-16 27.24v5.17c-1.17.12-2.3.34-3.46.51 1.22-1.86 2.37-3.76 3.47-5.68zm-264 132.76h-56v-384h432v176h-16v-160h-400v64h-8v80h8v64h-8v80h8v64h238.74a79.93 79.93 0 0 0 9.42 16H79.72zm208-48a63.7 63.7 0 0 1 17.74-44.1 120.92 120.92 0 0 0 14.78-11.55 63.63 63.63 0 0 1 71.48 5.77v1.88h2.19a64 64 0 1 1-106.19 48zm216 64h-104.2a80.46 80.46 0 0 0 16-16h88.16zm0-64h-72a79.87 79.87 0 0 0-1.62-16h73.62zm-128-96v-16h128v16z"/><circle cx="239.77" cy="214.59" r="37.5" class="cls-6"/><path d="M47.72 118.52h16v48h-16zm0 144h16v48h-16z" class="cls-7"/><path d="M243.46 226.43a11.58 11.58 0 0 1-2.67.31c-6.38 0-11.81-4.86-12.2-12.07a22.71 22.71 0 0 1 .66-4.09l-9.87-4.2a25.49 25.49 0 0 0-1.56 8.8c0 12.37 10.6 22.39 23 22.39a22.33 22.33 0 0 0 8.3-1.59zm-2.67-34.83a22.31 22.31 0 0 0-9.32 2l5.56 9.44a11.54 11.54 0 0 1 3.76-.63c5.65 0 11.64 4.74 12.21 10.57l-16.07.07 25 10.61a22.9 22.9 0 0 0 1.74-9.51c.05-12.33-10.52-22.55-22.88-22.55z" class="cls-8"/></svg>