<svg xmlns="http://www.w3.org/2000/svg" id="Capa_1" data-name="Capa 1" viewBox="0 0 627.95 878.22"><defs><style>.cls-1{fill:none}.cls-2{clip-path:url(#clip-path)}.cls-3{fill:#1aa59c}.cls-4{fill:#1aa49c}.cls-5{fill:#19a39d}.cls-6{fill:#19a29d}.cls-7{fill:#19a19d}.cls-8{fill:#18a09d}.cls-9{fill:#189f9e}.cls-10{fill:#179e9e}.cls-11{fill:#179d9e}.cls-12{fill:#179c9e}.cls-13{fill:#169b9f}.cls-14{fill:#169a9f}.cls-15{fill:#16999f}.cls-16{fill:#15989f}.cls-17{fill:#1597a0}.cls-18{fill:#1596a0}.cls-19{fill:#1495a0}.cls-20{fill:#1494a1}.cls-21{fill:#1393a1}.cls-22{fill:#1392a1}.cls-23{fill:#1391a1}.cls-24{fill:#1290a2}.cls-25{fill:#128fa2}.cls-26{fill:#128ea2}.cls-27{fill:#118da2}.cls-28{fill:#118ca3}.cls-29{fill:#108ba3}.cls-30{fill:#108aa3}.cls-31{fill:#1089a3}.cls-32{fill:#0f88a4}.cls-33{fill:#0f87a4}.cls-34{fill:#0f86a4}.cls-35{fill:#0e85a5}.cls-36{fill:#0e84a5}.cls-37{fill:#0e83a5}.cls-38{fill:#0d82a5}.cls-39{fill:#0d80a6}.cls-40{fill:#0c7fa6}.cls-41{fill:#0c7ea6}.cls-42{fill:#0c7da6}.cls-43{fill:#0b7ca7}.cls-44{fill:#0b7ba7}.cls-45{fill:#0b7aa7}.cls-46{fill:#0a79a8}.cls-47{fill:#0a78a8}.cls-48{fill:#0a77a8}.cls-49{fill:#0976a8}.cls-50{fill:#0975a9}.cls-51{fill:#0874a9}.cls-52{fill:#0873a9}.cls-53{fill:#0872a9}.cls-54{fill:#0771aa}.cls-55{fill:#0770aa}.cls-56{fill:#076faa}.cls-57{fill:#066eaa}.cls-58{fill:#066dab}.cls-59{fill:#056cab}.cls-60{fill:#fff}.cls-61{fill:#ffce00}.cls-62{fill:#8b572a}.cls-63{fill:#dfdfe3}.cls-64{fill:#ffa21a}.cls-65{fill:#4d3325;opacity:.5}.cls-65,.cls-68{isolation:isolate}.cls-66{fill:#81cc3b}.cls-67{fill:#7bba38}.cls-68{opacity:.1}</style><clipPath id="clip-path"><circle cx="313.97" cy="168.05" r="138.51" class="cls-1"/></clipPath></defs><title>onboarding_icon-01</title><g class="cls-2"><path d="M452.49 68.58l-57.45-39.04h57.45v39.04zm0 7.53l-68.54-46.57h11.09l57.45 39.04v7.53z" class="cls-3"/><path d="M452.49 83.64l-79.61-54.1h11.07l68.54 46.57v7.53z" class="cls-4"/><path d="M452.49 91.17L361.8 29.54h11.08l79.61 54.1v7.53z" class="cls-5"/><path d="M452.49 98.69L350.72 29.54h11.08l90.69 61.63v7.52z" class="cls-6"/><path d="M452.49 106.22L339.64 29.54h11.08l101.77 69.15v7.53z" class="cls-7"/><path d="M452.49 113.75L328.56 29.54h11.08l112.85 76.68v7.53z" class="cls-8"/><path d="M452.49 121.28L317.48 29.54h11.08l123.93 84.21v7.53z" class="cls-9"/><path d="M452.49 128.81L306.4 29.54h11.08l135.01 91.74v7.53z" class="cls-10"/><path d="M452.49 136.34L295.32 29.54h11.08l146.09 99.27v7.53z" class="cls-11"/><path d="M452.49 143.87L284.24 29.54h11.08l157.17 106.8v7.53z" class="cls-12"/><path d="M452.49 151.4L273.16 29.54h11.08l168.25 114.33v7.53z" class="cls-13"/><path d="M452.49 158.93L262.08 29.54h11.08L452.49 151.4v7.53z" class="cls-14"/><path d="M452.49 166.46L251 29.54h11.08l190.41 129.39v7.53z" class="cls-15"/><path d="M452.49 173.99L239.92 29.54H251l201.49 136.92v7.53z" class="cls-16"/><path d="M452.49 181.51L228.84 29.54h11.08l212.57 144.45v7.52z" class="cls-17"/><path d="M452.49 189.04L217.76 29.54h11.08l223.65 151.97v7.53z" class="cls-18"/><path d="M452.49 196.57L212.5 33.49l2.69-3.95h2.57l234.73 159.5v7.53z" class="cls-19"/><path d="M452.49 204.1L209 38.65l3.5-5.16 239.99 163.08v7.53z" class="cls-20"/><path d="M452.49 211.63L205.5 43.8l3.5-5.15L452.49 204.1v7.53z" class="cls-21"/><path d="M452.49 219.16L202 48.95l3.5-5.15 246.99 167.83v7.53z" class="cls-22"/><path d="M452.49 226.69L198.5 54.1l3.5-5.15 250.49 170.21v7.53z" class="cls-23"/><path d="M452.49 234.22L195 59.25l3.5-5.15 253.99 172.59v7.53z" class="cls-24"/><path d="M452.49 241.75L191.5 64.4l3.5-5.15 257.49 174.97v7.53z" class="cls-25"/><path d="M452.49 248.11l-.55.8L188 69.55l3.5-5.15 260.99 177.35v6.36z" class="cls-26"/><path d="M315.11 2.25h6.23v319.11h-6.23z" class="cls-27" transform="rotate(-55.8 318.235 161.798)"/><path d="M311.61 7.4h6.23v319.11h-6.23z" class="cls-28" transform="rotate(-55.8 314.745 166.951)"/><path d="M308.11 12.55h6.23v319.11h-6.23z" class="cls-29" transform="rotate(-55.8 311.24 172.108)"/><path d="M441.44 264.36l-3.5 5.15L175.47 91.15V88l2.03-3 263.94 179.36z" class="cls-30"/><path d="M437.94 269.51l-3.5 5.15L175.47 98.68v-7.53l262.47 178.36z" class="cls-31"/><path d="M434.44 274.66l-3.5 5.15-255.47-173.6v-7.53l258.97 175.98z" class="cls-32"/><path d="M430.94 279.81l-3.5 5.15-251.97-171.23v-7.52l255.47 173.6z" class="cls-33"/><path d="M427.44 284.96l-3.5 5.15-248.47-168.85v-7.53l251.97 171.23z" class="cls-34"/><path d="M423.94 290.11l-3.5 5.15-244.97-166.47v-7.53l248.47 168.85z" class="cls-35"/><path d="M420.44 295.26l-3.5 5.15-241.47-164.09v-7.53l244.97 166.47z" class="cls-36"/><path d="M416.94 300.41l-3.5 5.15-237.97-161.71v-7.53l241.47 164.09z" class="cls-37"/><path d="M413.44 305.56l-.68 1h-8.93L175.47 151.38v-7.53l237.97 161.71z" class="cls-38"/><path d="M392.75 306.56L175.47 158.91v-7.53l228.36 155.18h-11.08z" class="cls-39"/><path d="M381.67 306.56l-206.2-140.12v-7.53l217.28 147.65h-11.08z" class="cls-40"/><path d="M370.59 306.56L175.47 173.97v-7.53l206.2 140.12h-11.08z" class="cls-41"/><path d="M359.51 306.56L175.47 181.5v-7.53l195.12 132.59h-11.08z" class="cls-42"/><path d="M348.43 306.56L175.47 189.03v-7.53l184.04 125.06h-11.08z" class="cls-43"/><path d="M337.35 306.56L175.47 196.55v-7.52l172.96 117.53h-11.08z" class="cls-44"/><path d="M326.27 306.56l-150.8-102.48v-7.53l161.88 110.01h-11.08z" class="cls-45"/><path d="M315.19 306.56l-139.72-94.95v-7.53l150.8 102.48h-11.08z" class="cls-46"/><path d="M304.11 306.56l-128.64-87.42v-7.53l139.72 94.95h-11.08z" class="cls-47"/><path d="M293.03 306.56l-117.56-79.89v-7.53l128.64 87.42h-11.08z" class="cls-48"/><path d="M281.95 306.56L175.47 234.2v-7.53l117.56 79.89h-11.08z" class="cls-49"/><path d="M270.87 306.56l-95.4-64.83v-7.53l106.48 72.36h-11.08z" class="cls-50"/><path d="M259.79 306.56l-84.32-57.3v-7.53l95.4 64.83h-11.08z" class="cls-51"/><path d="M248.71 306.56l-73.24-49.77v-7.53l84.32 57.3h-11.08z" class="cls-52"/><path d="M237.63 306.56l-62.16-42.25v-7.52l73.24 49.77h-11.08z" class="cls-53"/><path d="M226.55 306.56l-51.08-34.72v-7.53l62.16 42.25h-11.08z" class="cls-54"/><path d="M215.47 306.56l-40-27.19v-7.53l51.08 34.72h-11.08z" class="cls-55"/><path d="M204.39 306.56l-28.92-19.66v-7.53l40 27.19h-11.08z" class="cls-56"/><path d="M193.31 306.56l-17.84-12.13v-7.53l28.92 19.66h-11.08z" class="cls-57"/><path d="M182.23 306.56l-6.76-4.6v-7.53l17.84 12.13h-11.08z" class="cls-58"/><path d="M175.47 301.96l6.76 4.6h-6.76v-4.6z" class="cls-59"/></g><path d="M314 312.56c-79.68 0-144.51-64.83-144.51-144.51S234.29 23.54 314 23.54s144.49 64.83 144.49 144.51S393.66 312.56 314 312.56zm0-277c-73.07 0-132.51 59.44-132.51 132.51S240.91 300.56 314 300.56s132.51-59.44 132.51-132.51S387 35.54 314 35.54z"/><g class="cls-2"><path d="M324.09 212.89a43.85 43.85 0 0 1-10.09 1.18c-24.16 0-44.71-18.4-46.2-45.69-.19-3.42 1.75-12.27 2.49-15.47L232.91 137c-3.81 9.64-5.9 22.33-5.9 33.33 0 46.82 40.14 84.78 87 84.78a84.55 84.55 0 0 0 31.44-6z" class="cls-60"/><path d="M314.1 260.1h-.1a92.52 92.52 0 0 1-64.51-26.24C231.76 216.77 222 194.2 222 170.31c0-12.12 2.34-25.27 6.25-35.17a5 5 0 0 1 6.61-2.76l37.36 15.92a5 5 0 0 1 2.91 5.73c-1.47 6.33-2.47 12.24-2.37 14.06 1.29 23.74 18.62 41 41.2 41a38.89 38.89 0 0 0 8.95-1 5 5 0 0 1 5.46 2.33l21.32 36.19a5 5 0 0 1-2.46 7.18 89.15 89.15 0 0 1-33.13 6.31zm-78.22-116.41a96.08 96.08 0 0 0-3.88 26.62c0 21.15 8.67 41.16 24.4 56.35A82.57 82.57 0 0 0 314 250.1h.11a79.16 79.16 0 0 0 24-3.69l-16.46-27.94a48.86 48.86 0 0 1-7.58.59c-27.62 0-49.62-21.68-51.19-50.42-.16-3 .77-8.32 1.7-12.77z"/><path d="M314 81a84.47 84.47 0 0 0-35.3 7.7l21 35.74a43.65 43.65 0 0 1 14.3-2.38c21.39 0 44.07 17.93 46.25 40l-60.83.26 94.84 40.19c5-10.77 6.55-23.37 6.55-36C400.82 119.67 360.8 81 314 81z" class="cls-60"/><path d="M394.22 207.53a5 5 0 0 1-1.95-.4l-94.84-40.19a5 5 0 0 1 1.93-9.6l54.82-.24c-4.68-16.31-22.41-30-40.22-30a39.1 39.1 0 0 0-12.62 2.11 5 5 0 0 1-5.94-2.19l-21-35.73a5 5 0 0 1 2.22-7.08A90.1 90.1 0 0 1 313.91 76h.09a91.8 91.8 0 0 1 64.47 26.61c17.64 17.28 27.35 40 27.32 63.91 0 15.38-2.29 27.84-7 38.08a5 5 0 0 1-4.57 2.93zm-70.47-40.29l67.75 28.71c2.87-8.07 4.27-17.75 4.27-29.41 0-21.23-8.62-41.38-24.32-56.76A81.86 81.86 0 0 0 314 86h-.07a80.11 80.11 0 0 0-28 5.1L302 118.54a48.54 48.54 0 0 1 11.89-1.47c24.94 0 48.87 20.8 51.22 44.52a5 5 0 0 1-5 5.49z"/></g><path d="M352.29 404.47h46.5v10.5h-46.5z" class="cls-61"/><path d="M535.94 430v145.19h-.86a7.5 7.5 0 0 0-7.5 7.5v2.83h-48a19.63 19.63 0 0 1-2.86-2.82c-1.87-2.34-3.29-5.82-4.8-9.5-2.41-5.88-5.13-12.54-10.84-17.1s-12.76-5.71-19-6.75c-3.94-.66-7.66-1.28-10.39-2.59s-5.37-3.76-8.28-6.39c-4.75-4.29-10.13-9.16-17.36-10.8-7-1.59-13.81.41-19.84 2.17-3.89 1.14-7.57 2.22-10.7 2.22s-6.81-1.08-10.71-2.22c-6-1.76-12.86-3.76-19.83-2.17-7.23 1.64-12.62 6.51-17.36 10.8-2.91 2.63-5.66 5.12-8.28 6.39s-6.46 1.93-10.4 2.59c-6.25 1-13.33 2.22-19 6.75s-8.43 11.22-10.84 17.1c-1.5 3.68-2.93 7.16-4.8 9.51a19.63 19.63 0 0 1-2.86 2.81h-48v-2.83a7.5 7.5 0 0 0-7.5-7.5h-.86V430h320.87zM517 555.38a7.51 7.51 0 0 0-5.71-13.89L485.93 552a7.5 7.5 0 0 0 2.87 14.4 7.65 7.65 0 0 0 2.87-.57zm-34.63-45.75a7.5 7.5 0 1 0-10.43-10.78l-.18.18L459 511.77a7.5 7.5 0 1 0 10.61 10.61zm-42.49-39.48a7.51 7.51 0 0 0-13.88-5.77l-10.48 25.32a7.5 7.5 0 0 0 4.06 9.8 7.64 7.64 0 0 0 2.86.57 7.51 7.51 0 0 0 6.94-4.63zM383 479.5v-18a7.5 7.5 0 0 0-15 0v18a7.5 7.5 0 0 0 15 0zm-51.54 20a7.52 7.52 0 0 0 4.06-9.8l-10.49-25.32a7.5 7.5 0 1 0-13.86 5.74l10.49 25.32a7.49 7.49 0 0 0 6.93 4.63 7.65 7.65 0 0 0 2.87-.57zm-39.45 22.88a7.49 7.49 0 0 0 0-10.59L279.28 499a7.5 7.5 0 0 0-10.79 10.42l.18.18 12.77 12.78a7.5 7.5 0 0 0 10.61 0zm-22.84 39.4a7.51 7.51 0 0 0-4.06-9.8l-25.32-10.49a7.51 7.51 0 1 0-5.74 13.89l25.32 10.49a7.64 7.64 0 0 0 2.87.51 7.51 7.51 0 0 0 6.97-4.6zm258.41 72.39v110.21A66 66 0 0 0 501.2 790H249.88a66 66 0 0 0-26.38-45.57V634.17h108.56v43.11a7.5 7.5 0 0 0 7.5 7.5h72a7.5 7.5 0 0 0 7.5-7.5v-43.11z" class="cls-62"/><path d="M375.54 628a7.41 7.41 0 1 1-7.42 7.41 7.41 7.41 0 0 1 7.42-7.41z" class="cls-61"/><path d="M404 601v68.82h-56.94V601H404zm-6 34.38a22.42 22.42 0 1 0-22.43 22.41A22.44 22.44 0 0 0 398 635.38z" class="cls-63"/><path d="M208.5 590.19v145.87a65.49 65.49 0 0 0-16.68-4.17v-141.7zm123.56 10.33v18.65H223.5v-18.65h108.56zm86.95 0h108.57v18.65H419.01zm140.27-10.33v141.7a65.28 65.28 0 0 0-16.68 4.17V590.19zm0 156.81v43h-43a51.11 51.11 0 0 1 43-43zm-324.52 43h-42.94v-43a51.12 51.12 0 0 1 42.94 43z" class="cls-61"/><path d="M461 585.52H290.09c1.08-2.19 2-4.43 2.91-6.64 1.88-4.6 3.65-8.94 6.31-11.06s7.23-2.86 12.11-3.67 9.79-1.63 14.46-3.88 8.25-5.55 11.82-8.77 7.22-6.53 10.62-7.31c3.17-.72 7.61.58 12.3 1.95 4.52 1.32 9.64 2.82 14.92 2.82s10.4-1.5 14.92-2.82c4.69-1.37 9.12-2.67 12.3-1.94 3.4.77 6.9 3.94 10.61 7.3s7.26 6.56 11.83 8.77 9.64 3.07 14.45 3.88 9.49 1.57 12.12 3.67 4.43 6.46 6.3 11c.93 2.26 1.83 4.56 2.93 6.7z" class="cls-64"/><path d="M574.28 582.69v214.76a7.5 7.5 0 0 1-7.5 7.5h-382.5a7.5 7.5 0 0 1-7.5-7.5V582.69a7.5 7.5 0 0 1 7.5-7.5h15.82V422.47a7.5 7.5 0 0 1 7.5-7.5h129.68V397a7.5 7.5 0 0 1 7.5-7.5h61.5a7.5 7.5 0 0 1 7.5 7.5v18h129.66a7.5 7.5 0 0 1 7.5 7.5v152.69h15.82a7.5 7.5 0 0 1 7.52 7.48zm-15 207.31v-43a51.11 51.11 0 0 0-43 42.94zm0-58.06V590.19h-16.7v145.87a65.28 65.28 0 0 1 16.7-4.17zM536 575.19V430H215.14v145.19h.86a7.5 7.5 0 0 1 7.5 7.5v2.83h48a19.63 19.63 0 0 0 2.86-2.81c1.87-2.35 3.3-5.83 4.8-9.51 2.41-5.88 5.13-12.54 10.84-17.1s12.76-5.71 19-6.75c3.94-.66 7.67-1.28 10.4-2.59s5.37-3.76 8.28-6.39c4.74-4.29 10.13-9.16 17.36-10.8 7-1.59 13.8.41 19.83 2.17 3.9 1.14 7.58 2.22 10.71 2.22s6.81-1.08 10.7-2.22c6-1.76 12.87-3.76 19.84-2.17 7.23 1.64 12.61 6.51 17.36 10.8 2.91 2.63 5.65 5.12 8.28 6.39s6.45 1.93 10.39 2.59c6.25 1 13.34 2.22 19 6.75s8.43 11.22 10.84 17.1c1.51 3.68 2.93 7.16 4.8 9.5a19.64 19.64 0 0 0 2.86 2.82h48v-2.83a7.5 7.5 0 0 1 7.5-7.5h.85zm-8.38 169.19V634.17H419v43.11a7.5 7.5 0 0 1-7.5 7.5h-71.94a7.5 7.5 0 0 1-7.5-7.5v-43.11H223.5v110.21A66 66 0 0 1 249.88 790H501.2a66 66 0 0 1 26.38-45.62zm0-125.21v-18.65H419v18.65zm-237.53-33.65H461c-1.08-2.19-2-4.44-2.91-6.65-1.87-4.59-3.65-8.93-6.3-11s-7.24-2.86-12.12-3.67-9.79-1.63-14.45-3.88-8.26-5.55-11.83-8.77-7.21-6.53-10.61-7.3c-3.18-.73-7.61.57-12.3 1.94-4.52 1.32-9.64 2.82-14.92 2.82s-10.4-1.5-14.92-2.82c-4.69-1.37-9.13-2.67-12.3-1.95-3.4.78-6.91 3.95-10.62 7.31s-7.26 6.56-11.82 8.77-9.65 3.07-14.46 3.88-9.48 1.57-12.11 3.67-4.43 6.46-6.31 11.06c-.93 2.16-1.85 4.45-2.93 6.59zM404 669.78V601h-56.94v68.82zM398.79 415v-10.5h-46.51V415zm-66.73 204.2v-18.68H223.5v18.65zM216 790h18.76a51.12 51.12 0 0 0-42.94-43v43zm-7.5-53.89V590.19h-16.68v141.7a65.49 65.49 0 0 1 16.68 4.17z"/><path d="M488.8 572.38a13.5 13.5 0 0 1-5.16-26L509 535.89a13.53 13.53 0 0 1 10.33 25L494 571.38a13.68 13.68 0 0 1-5.2 1z" class="cls-64"/><path d="M514.12 540.92a7.5 7.5 0 0 1 2.88 14.46l-25.32 10.49a7.65 7.65 0 0 1-2.87.57 7.5 7.5 0 0 1-2.88-14.44l25.35-10.52a7.47 7.47 0 0 1 2.87-.58m0-12a19.39 19.39 0 0 0-7.47 1.49l-25.31 10.49a19.48 19.48 0 0 0 14.8 36l25.32-10.49a19.5 19.5 0 0 0-7.49-37.46z"/><path d="M464.28 530.54a13.51 13.51 0 0 1-9.55-23l12.73-12.74a13.5 13.5 0 0 1 19.37 18.81l-.27.27-12.69 12.7a13.41 13.41 0 0 1-9.59 3.96z" class="cls-64"/><path d="M477.06 496.8a7.5 7.5 0 0 1 5.3 12.81l-12.73 12.77a7.5 7.5 0 0 1-10.63-10.6L471.75 499a7.47 7.47 0 0 1 5.31-2.21m0-12a19.37 19.37 0 0 0-13.78 5.7l-12.72 12.73a19.5 19.5 0 0 0 27.58 27.57l12.73-12.74a19.5 19.5 0 0 0-13.79-33.29z"/><path d="M422.44 506.07A13.51 13.51 0 0 1 410 487.39l10.49-25.31a13.52 13.52 0 1 1 25 10.32L435 497.73a13.48 13.48 0 0 1-12.56 8.34z" class="cls-64"/><path d="M432.93 459.75a7.51 7.51 0 0 1 6.93 10.38l-10.48 25.31a7.51 7.51 0 0 1-6.94 4.63 7.64 7.64 0 0 1-2.86-.57 7.5 7.5 0 0 1-4.06-9.8L426 464.38a7.49 7.49 0 0 1 6.93-4.64m0-12a19.43 19.43 0 0 0-18 12.06l-10.48 25.3A19.5 19.5 0 0 0 415 510.58h.1A19.5 19.5 0 0 0 440.49 500L451 474.67a19.51 19.51 0 0 0-18-27zM375.54 613a22.41 22.41 0 1 1-22.42 22.42A22.41 22.41 0 0 1 375.54 613zm7.46 22.38a7.42 7.42 0 1 0-7.43 7.41 7.42 7.42 0 0 0 7.43-7.41z"/><path d="M375.54 493a13.52 13.52 0 0 1-13.5-13.5v-18a13.5 13.5 0 0 1 27 0v18a13.52 13.52 0 0 1-13.5 13.5z" class="cls-64"/><path d="M375.54 454a7.5 7.5 0 0 1 7.5 7.5v18a7.5 7.5 0 0 1-15 0v-18a7.49 7.49 0 0 1 7.48-7.5m0-12a19.52 19.52 0 0 0-19.5 19.5v18a19.5 19.5 0 0 0 39 0v-18a19.52 19.52 0 0 0-19.48-19.5z"/><path d="M328.63 506.07a13.45 13.45 0 0 1-12.48-8.35l-10.49-25.34a13.5 13.5 0 1 1 24.83-10.6l.11.26 10.5 25.34a13.53 13.53 0 0 1-7.3 17.62 13.68 13.68 0 0 1-5.17 1.07z" class="cls-64"/><path d="M318.13 459.75a7.51 7.51 0 0 1 6.93 4.64l10.49 25.32a7.52 7.52 0 0 1-4.06 9.8 7.65 7.65 0 0 1-2.87.57 7.49 7.49 0 0 1-6.93-4.63l-10.49-25.32a7.51 7.51 0 0 1 6.93-10.38m0-12a19.5 19.5 0 0 0-18 27l10.49 25.31A19.5 19.5 0 0 0 336 510.65h.12a19.54 19.54 0 0 0 10.54-25.47l-10.49-25.33a19.46 19.46 0 0 0-18-12z"/><path d="M286.75 530.54a13.46 13.46 0 0 1-9.54-3.94l-12.75-12.76a13.5 13.5 0 1 1 18.83-19.35l.27.27 12.72 12.74a13.5 13.5 0 0 1-9.54 23z" class="cls-64"/><path d="M274 496.8a7.49 7.49 0 0 1 5.31 2.2l12.73 12.74a7.51 7.51 0 0 1-10.61 10.64l-12.73-12.74a7.5 7.5 0 0 1 5.3-12.8m0-12a19.5 19.5 0 0 0-13.79 33.29L273 530.87a19.5 19.5 0 0 0 27.93-27.22l-.35-.35-12.78-12.74a19.39 19.39 0 0 0-13.8-5.72z"/><path d="M262.28 572.38a13.59 13.59 0 0 1-5.11-1l-25.37-10.51a13.5 13.5 0 1 1 10.08-25l.26.11 25.32 10.49a13.5 13.5 0 0 1-5.18 26z" class="cls-64"/><path d="M237 540.92a7.48 7.48 0 0 1 2.87.58l25.27 10.5a7.5 7.5 0 0 1-2.86 14.39 7.64 7.64 0 0 1-2.86-.57l-25.33-10.43a7.5 7.5 0 0 1 2.91-14.45m0-12a19.5 19.5 0 0 0-7.47 37.52L254.82 577a19.5 19.5 0 0 0 14.82-36.07l-25.22-10.5a19.38 19.38 0 0 0-7.47-1.49z"/><path d="M243.54 697.38h64a10.67 10.67 0 0 0 0-21.33h-64a10.67 10.67 0 0 0-.65 21.33zm60.59 49.35h64a10.67 10.67 0 0 0 0-21.33h-64a10.67 10.67 0 1 0-.65 21.33h.65zm134.56-30.24h64a10.67 10.67 0 0 0 .65-21.33h-64.65a10.67 10.67 0 0 0-.65 21.33zM396 792.82h64a10.67 10.67 0 0 0 .65-21.33H396a10.67 10.67 0 0 0-.65 21.33z" class="cls-65"/><path d="M223.59 652.91l-81.76-28.86a4.81 4.81 0 0 0-3.2 0l-81.76 28.86a4.82 4.82 0 0 0-3.21 4.54v57.71c0 74.68 11.07 102 84.4 139a4.79 4.79 0 0 0 4.33 0c73.33-37 84.4-64.27 84.4-139v-57.71a4.82 4.82 0 0 0-3.2-4.54z"/><path d="M140.23 636.92L68 660.85l-2.08 54.31c0 8.7.14 16.66.49 24h73.81z" class="cls-66"/><path d="M216.68 739.2c.36-7.38.5-15.34.5-24L215 660.89l-74.8-25V739.2z" class="cls-67"/><path d="M140.23 737.05v103.07c59.57-30.37 73.85-49.8 76.45-103.07z" class="cls-66"/><path d="M65.94 737.05c2.59 53.27 14.72 72.7 74.29 103.07V737.05z" class="cls-67"/><path d="M140.23 823.62C72.4 789 63.28 775.5 63.28 704v9c0 71.53 9.12 94.69 77 129.27 67.83-34.58 77-57.73 77-129.27v-9c-.1 71.5-9.22 85-77.05 119.62z" class="cls-68"/><path d="M111.38 710.38a28.79 28.79 0 0 0 10.44 22.19l-5.58 39.66a4.81 4.81 0 0 0 4.76 5.48h38.5a4.81 4.81 0 0 0 4.76-5.48l-5.58-39.66a28.85 28.85 0 1 0-47.3-22.19z"/><path d="M159.5 710.38a19.23 19.23 0 0 1-8.63 16 4.82 4.82 0 0 0-2.1 4.68l5.2 37H126.5l5.2-37a4.82 4.82 0 0 0-2.1-4.68 19.23 19.23 0 1 1 29.9-16z" class="cls-63"/><path d="M135.77 768.06l4.78-34a4.82 4.82 0 0 0-2.1-4.68 19.23 19.23 0 0 1 10.6-35.27c.59 0 1.15.12 1.73.17a19.22 19.22 0 0 0-21.15 32.1 4.82 4.82 0 0 1 2.1 4.68l-5.2 37z" class="cls-68"/></svg>